<svg xmlns="http://www.w3.org/2000/svg" xmlns:xlink="http://www.w3.org/1999/xlink" version="1.1" id="Layer_1" x="0px" y="0px" width="100px" height="100px" viewBox="0 0 100 100" enable-background="new 0 0 100 100" xml:space="preserve">
<g>
	<rect x="67.369" y="45.692" fill="#000000" width="8.775" height="3.385"/>
	<rect x="46.684" y="26.386" fill="#000000" width="9.026" height="4.012"/>
	<rect x="57.215" y="26.386" fill="#000000" width="18.93" height="4.012"/>
	<rect x="57.026" y="45.692" fill="#000000" width="8.775" height="3.385"/>
	<rect x="16.028" y="47.322" fill="#000000" width="9.026" height="4.012"/>
	<rect x="26.559" y="47.322" fill="#000000" width="18.931" height="4.012"/>
	<rect x="16.028" y="52.964" fill="#000000" width="29.461" height="12.286"/>
	<rect x="73.833" y="51.847" fill="#000000" width="4.367" height="1.348"/>
	<rect x="78.929" y="51.847" fill="#000000" width="9.159" height="1.348"/>
	<rect x="78.838" y="60.568" fill="#000000" width="4.245" height="4.741"/>
	<rect x="73.833" y="60.568" fill="#000000" width="4.246" height="4.741"/>
	<rect x="73.833" y="53.898" fill="#000000" width="14.255" height="5.862"/>
	<circle fill="#000000" cx="80.961" cy="73.015" r="0.496"/>
	<rect x="88.034" y="64.27" fill="#000000" width="1.736" height="1.348"/>
	<rect x="90.06" y="64.27" fill="#000000" width="3.642" height="1.348"/>
	<rect x="88.034" y="65.819" fill="#000000" width="5.667" height="2.227"/>
	<rect x="88.034" y="68.265" fill="#000000" width="5.667" height="1.411"/>
	<rect x="88.034" y="69.863" fill="#000000" width="5.667" height="1.411"/>
	<rect x="88.034" y="71.461" fill="#000000" width="5.667" height="1.411"/>
	<path fill="#000000" d="M93.455,61.782h-2.948V50.327c0-0.592-0.482-1.074-1.075-1.074h-0.148v-2.287v-8.31V25.643   c0-1.122-0.908-2.031-2.03-2.031H35.576c-1.122,0-2.031,0.909-2.031,2.031v13.013v5.517H12.619c-1.238,0-2.241,1.003-2.241,2.241   v23.532H5c0.394,2.072,2.21,3.642,4.397,3.642h42.722c2.188,0,4.004-1.569,4.398-3.642h-5.379V62.01h3.854v3.079l-2.435,2.987   c0,0.55,0.448,0.998,0.997,0.998h15.72c0.549,0,0.997-0.448,0.997-0.998l-2.435-2.987V62.01h3.577v11.088   c0,0.593,0.482,1.074,1.075,1.074h14.246v0.671c0,0.852,0.692,1.545,1.544,1.545h5.176c0.852,0,1.545-0.693,1.545-1.545V63.326   C95,62.476,94.307,61.782,93.455,61.782z M91.637,62.275c0.173,0,0.309,0.169,0.309,0.384c0,0.216-0.136,0.384-0.309,0.384h-1.538   c-0.173,0-0.309-0.168-0.309-0.384c0-0.215,0.136-0.384,0.309-0.384H91.637z M35.481,25.518h51.867v23.735H72.489   c-0.593,0-1.075,0.482-1.075,1.074v0.004H51.139v-1.254h4.32v-3.385H51.01c-0.22-0.642-0.717-1.149-1.354-1.379h26.488V32.028   H46.684v12.145H35.481V25.518z M48.498,68.571h-3.009v-1.942h-8.776v1.942h-1.567v-1.942h-8.776v1.942h-1.567v-1.942h-8.776v1.942   h-3.009V46.37h35.479V68.571z M72.979,55.673v-4.685h7.628h8.335v10.794h-0.662c-0.076,0-0.149,0.012-0.223,0.022   c0.012-0.002,0.021-0.009,0.031-0.01v-1.227h-4.246v4.741h2.894v0.735H73.833v5.916h-0.854V55.673z M87.586,61.954   c-0.02,0.011-0.039,0.021-0.059,0.032C87.547,61.976,87.565,61.965,87.586,61.954z M87.146,62.286   c-0.014,0.016-0.025,0.032-0.039,0.048C87.12,62.318,87.132,62.302,87.146,62.286z M86.848,62.756   c-0.006,0.015-0.009,0.029-0.014,0.044C86.839,62.785,86.842,62.771,86.848,62.756z M80.961,73.759   c-0.411,0-0.744-0.334-0.744-0.744s0.333-0.743,0.744-0.743c0.41,0,0.743,0.333,0.743,0.743S81.371,73.759,80.961,73.759z    M90.867,75.829c-0.438,0-0.796-0.356-0.796-0.795c0-0.439,0.357-0.796,0.796-0.796s0.795,0.356,0.795,0.796   C91.662,75.473,91.306,75.829,90.867,75.829z M94.148,73.772h-0.447v-0.706h-5.667v0.706h-0.448V63.46h6.562V73.772z"/>
</g>
</svg>